<svg xmlns="http://www.w3.org/2000/svg" xmlns:xlink="http://www.w3.org/1999/xlink" viewBox="0,0,256,256" width="500px" height="500px" fill-rule="nonzero"><g fill="#21b8c4" fill-rule="nonzero" stroke="none" stroke-width="1" stroke-linecap="butt" stroke-linejoin="miter" stroke-miterlimit="10" stroke-dasharray="" stroke-dashoffset="0" font-family="none" font-weight="none" font-size="none" text-anchor="none" style="mix-blend-mode: normal"><g transform="scale(5.12,5.12)"><path d="M5,7c-2.75781,0 -5,2.24219 -5,5v26c0,2.75781 2.24219,5 5,5h40c2.75781,0 5,-2.24219 5,-5v-26c0,-2.75781 -2.24219,-5 -5,-5zM8.5625,19.90625h2.78125l3.65625,8.1875v-8.1875h3.28125l2.5625,5.71875l2.5625,-5.71875h3.34375v8.5h-2.09375v-6.21875l-2.84375,6.21875h-1.90625l-2.8125,-6.3125v6.3125h-4.21875l-0.8125,-1.875h-4.1875l-0.8125,1.875h-2.21875zM29.5,19.90625h8.25l2.3125,2.65625l2.40625,-2.65625h2.65625l-3.75,4.15625l3.75,4.375h-2.65625l-2.46875,-2.84375l-2.53125,2.8125h-7.96875zM9.90625,21.6875l-1.25,3h2.5625zM31.5625,21.71875v1.59375h4.625v1.625h-4.625v1.6875h4.84375l2.28125,-2.5625l-2.03125,-2.3125z"></path></g></g></svg>